<?xml version="1.0" encoding="UTF-8" standalone="no"?>
<!-- Generator: Adobe Illustrator 16.0.0, SVG Export Plug-In . SVG Version: 6.00 Build 0)  -->

<svg
   xmlns:dc="http://purl.org/dc/elements/1.1/"
   xmlns:cc="http://creativecommons.org/ns#"
   xmlns:rdf="http://www.w3.org/1999/02/22-rdf-syntax-ns#"
   xmlns:svg="http://www.w3.org/2000/svg"
   xmlns="http://www.w3.org/2000/svg"
   xmlns:sodipodi="http://sodipodi.sourceforge.net/DTD/sodipodi-0.dtd"
   xmlns:inkscape="http://www.inkscape.org/namespaces/inkscape"
   version="1.1"
   id="svg2"
   x="0px"
   y="0px"
   width="901.31903"
   height="214.23514"
   viewBox="-384.5 305.5 901.31903 214.23514"
   enable-background="new -384.5 305.5 300 95.556"
   xml:space="preserve"
   inkscape:version="0.48.4 r9939"
   sodipodi:docname="20131217024221!New_Walmart_Logo.svg"><metadata
   id="metadata22"><rdf:RDF><cc:Work
       rdf:about=""><dc:format>image/svg+xml</dc:format><dc:type
         rdf:resource="http://purl.org/dc/dcmitype/StillImage" /></cc:Work></rdf:RDF></metadata><defs
   id="defs20" /><sodipodi:namedview
   pagecolor="#ffffff"
   bordercolor="#666666"
   borderopacity="1"
   objecttolerance="10"
   gridtolerance="10"
   guidetolerance="10"
   inkscape:pageopacity="0"
   inkscape:pageshadow="2"
   inkscape:window-width="1920"
   inkscape:window-height="1096"
   id="namedview18"
   showgrid="false"
   fit-margin-top="0"
   fit-margin-left="0"
   fit-margin-right="0"
   fit-margin-bottom="0"
   inkscape:zoom="8.8533333"
   inkscape:cx="823.14446"
   inkscape:cy="39.4548"
   inkscape:window-x="-8"
   inkscape:window-y="-8"
   inkscape:window-maximized="1"
   inkscape:current-layer="svg2" />
<g
   id="layer1"
   transform="matrix(3.32199,0,0,3.32199,710.49102,-3457.6137)">
	<path
   id="path2974"
   d="m -91.292,1154.499 c 1.511,0 2.755,-0.786 2.923,-1.801 l 1.492,-16.872 c 0,-1.668 -1.954,-3.037 -4.41,-3.037 -2.454,0 -4.406,1.369 -4.406,3.037 l 1.491,16.872 c 0.164,1.015 1.408,1.801 2.915,1.801 h -0.005"
   inkscape:connector-curvature="0"
   style="fill:#fdbb30" />
	<path
   id="path2976"
   d="m -100.411,1159.769 c 0.758,-1.307 0.701,-2.776 -0.098,-3.429 l -13.868,-9.728 c -1.442,-0.835 -3.604,0.17 -4.831,2.298 -1.231,2.125 -1.013,4.499 0.425,5.334 l 15.356,7.15 c 0.96,0.356 2.269,-0.329 3.021,-1.635 l -0.005,0.01"
   inkscape:connector-curvature="0"
   style="fill:#fdbb30" />
	<path
   id="path2978"
   d="m -82.165,1159.76 c 0.757,1.306 2.059,1.991 3.02,1.635 l 15.356,-7.15 c 1.447,-0.835 1.653,-3.209 0.433,-5.334 -1.233,-2.126 -3.399,-3.133 -4.837,-2.298 l -13.869,9.728 c -0.793,0.652 -0.852,2.122 -0.098,3.429 l -0.006,-0.01"
   inkscape:connector-curvature="0"
   style="fill:#fdbb30" />
	<path
   id="path2980"
   d="m -91.292,1175.575 c 1.511,0 2.755,0.779 2.923,1.795 l 1.492,16.87 c 0,1.673 -1.954,3.039 -4.41,3.039 -2.454,0 -4.406,-1.366 -4.406,-3.039 l 1.491,-16.87 c 0.164,-1.016 1.408,-1.795 2.915,-1.795 h -0.005"
   inkscape:connector-curvature="0"
   style="fill:#fdbb30" />
	<path
   id="path2982"
   d="m -82.165,1170.304 c 0.757,-1.31 2.059,-1.989 3.02,-1.629 l 15.356,7.145 c 1.447,0.836 1.653,3.212 0.433,5.339 -1.233,2.119 -3.399,3.129 -4.837,2.295 l -13.869,-9.719 c -0.793,-0.657 -0.852,-2.128 -0.098,-3.434 l -0.006,0"
   inkscape:connector-curvature="0"
   style="fill:#fdbb30" />
	<path
   id="path2984"
   d="m -100.411,1170.302 c 0.758,1.305 0.701,2.776 -0.098,3.434 l -13.868,9.719 c -1.442,0.834 -3.604,-0.176 -4.831,-2.295 -1.231,-2.127 -1.013,-4.503 0.425,-5.339 l 15.356,-7.145 c 0.96,-0.36 2.269,0.319 3.021,1.629 l -0.005,0"
   inkscape:connector-curvature="0"
   style="fill:#fdbb30" />
	<path
   id="path2986"
   d="m -178.769,1173.704 c 0,0.518 -0.046,1.052 -0.188,1.521 -0.588,1.948 -2.605,3.595 -5.128,3.595 -2.104,0 -3.775,-1.195 -3.775,-3.719 0,-3.863 4.252,-4.93 9.092,-4.903 v 3.506 z m 7.592,-6.732 c 0,-6.37 -2.722,-11.975 -11.919,-11.975 -4.721,0 -8.468,1.326 -10.513,2.508 l 1.498,5.121 c 1.869,-1.18 4.848,-2.157 7.667,-2.157 4.665,-0.013 5.429,2.642 5.429,4.341 v 0.402 c -10.169,-0.015 -16.597,3.506 -16.597,10.679 0,4.383 3.274,8.488 8.965,8.488 3.497,0 6.426,-1.396 8.179,-3.634 h 0.173 c 0,0 1.16,4.859 7.563,3 -0.334,-2.021 -0.444,-4.178 -0.444,-6.772 v -10.001"
   inkscape:connector-curvature="0"
   style="fill:#1a75cf" />
	<path
   id="path2988"
   d="m -329.619,1146.322 c 0,0 6.645,27.229 7.706,31.648 1.238,5.158 3.469,7.057 9.898,5.775 l 4.149,-16.881 c 1.052,-4.195 1.756,-7.186 2.434,-11.449 h 0.118 c 0.476,4.308 1.151,7.267 2.017,11.463 0,0 1.688,7.664 2.554,11.688 0.867,4.023 3.28,6.56 9.578,5.179 l 9.887,-37.424 h -7.98 l -3.377,16.181 c -0.908,4.708 -1.731,8.39 -2.366,12.697 h -0.113 c -0.577,-4.268 -1.312,-7.801 -2.234,-12.389 l -3.513,-16.489 h -8.316 l -3.76,16.073 c -1.064,4.886 -2.062,8.829 -2.694,12.992 h -0.115 c -0.649,-3.92 -1.513,-8.878 -2.448,-13.605 0,0 -2.232,-11.497 -3.017,-15.46 h -8.408"
   inkscape:connector-curvature="0"
   style="fill:#1a75cf" />
	<path
   id="path2990"
   d="m -266.183,1173.704 c 0,0.518 -0.046,1.052 -0.19,1.521 -0.587,1.948 -2.605,3.595 -5.128,3.595 -2.104,0 -3.773,-1.195 -3.773,-3.719 0,-3.863 4.251,-4.93 9.092,-4.903 v 3.506 z m 7.591,-6.732 c 0,-6.37 -2.722,-11.975 -11.917,-11.975 -4.722,0 -8.472,1.326 -10.516,2.508 l 1.496,5.121 c 1.869,-1.18 4.848,-2.157 7.668,-2.157 4.668,-0.013 5.432,2.642 5.432,4.341 v 0.402 c -10.173,-0.015 -16.598,3.506 -16.598,10.679 0,4.383 3.272,8.488 8.959,8.488 3.502,0 6.429,-1.396 8.184,-3.634 h 0.171 c 0,0 1.163,4.859 7.565,3 -0.335,-2.021 -0.444,-4.178 -0.444,-6.772 v -10.001"
   inkscape:connector-curvature="0"
   style="fill:#1a75cf" />
	<path
   id="path2992"
   d="m -245.923,1175.801 v -29.479 h -7.601 v 37.424 h 7.601 v -7.945"
   inkscape:connector-curvature="0"
   style="fill:#1a75cf" />
	<path
   id="path2994"
   d="m -146.49,1146.322 c 0,3.59 0,27.607 0,27.607 0,3.808 0.718,6.473 2.249,8.104 1.341,1.426 3.545,2.349 6.188,2.349 2.248,0 4.458,-0.429 5.501,-0.816 l -0.098,-5.938 c -0.776,0.19 -1.667,0.343 -2.887,0.343 -2.59,0 -3.456,-1.659 -3.456,-5.076 v -10.563 h 6.619 v -7.161 h -6.619 v -8.849 h -7.497"
   inkscape:connector-curvature="0"
   style="fill:#1a75cf" />
	<path
   id="path2996"
   d="m -166.109,1155.632 v 28.114 h 7.841 v -14.395 c 0,-0.778 0.047,-1.456 0.17,-2.076 0.58,-3.017 2.886,-4.943 6.198,-4.943 0.908,0 1.558,0.099 2.262,0.199 v -7.36 c -0.591,-0.118 -0.992,-0.173 -1.727,-0.173 -2.926,0 -6.255,1.888 -7.652,5.938 h -0.212 v -5.304 h -6.88"
   inkscape:connector-curvature="0"
   style="fill:#1a75cf" />
	<path
   id="path2998"
   d="m -240.601,1155.632 v 28.114 h 7.639 v -16.486 c 0,-0.774 0.091,-1.592 0.359,-2.301 0.633,-1.66 2.178,-3.604 4.643,-3.604 3.084,0 4.524,2.606 4.524,6.367 v 16.023 h 7.633 v -16.687 c 0,-0.738 0.101,-1.628 0.319,-2.279 0.627,-1.889 2.291,-3.425 4.583,-3.425 3.125,0 4.625,2.56 4.625,6.987 0,0 0,11.875 0,15.403 h 7.638 v -16.559 c 0,-8.732 -4.434,-12.189 -9.44,-12.189 -2.215,0 -3.965,0.555 -5.548,1.524 -1.329,0.819 -2.521,1.979 -3.561,3.504 h -0.113 c -1.207,-3.03 -4.047,-5.028 -7.748,-5.028 -4.755,0 -6.892,2.41 -8.188,4.454 h -0.114 v -3.82 h -7.251"
   inkscape:connector-curvature="0"
   style="fill:#1a75cf" />
	<path
   id="path3000"
   d="m -59.937,1182.379 h 0.115 c 0.153,0 0.251,-0.064 0.251,-0.157 0,-0.107 -0.092,-0.165 -0.234,-0.165 -0.049,0 -0.099,0.01 -0.132,0.01 v 0.315 l 0,0 z m -0.018,0.758 h -0.406 v -1.323 c 0.092,-0.018 0.307,-0.05 0.582,-0.05 0.299,0 0.433,0.042 0.531,0.108 0.083,0.058 0.143,0.157 0.143,0.29 0,0.136 -0.125,0.251 -0.309,0.301 v 0.017 c 0.15,0.04 0.232,0.149 0.275,0.34 0.041,0.191 0.066,0.269 0.092,0.317 h -0.46 c -0.04,-0.049 -0.064,-0.166 -0.091,-0.283 -0.026,-0.134 -0.089,-0.201 -0.225,-0.201 h -0.133 v 0.484 l 0.001,0 z m 0.168,-1.754 c -0.583,0 -1.023,0.475 -1.023,1.081 0,0.59 0.441,1.071 1.039,1.071 0.6,0.01 1.041,-0.481 1.041,-1.081 0,-0.597 -0.441,-1.071 -1.048,-1.071 h -0.009 l 0,0 z m 0.026,-0.359 c 0.813,0 1.461,0.64 1.461,1.43 0,0.799 -0.648,1.44 -1.472,1.44 -0.824,0 -1.48,-0.642 -1.48,-1.44 0,-0.79 0.657,-1.43 1.48,-1.43 h 0.009"
   inkscape:connector-curvature="0"
   style="fill:#fdbb30" />
</g>
</svg>